<svg width="309" height="109" viewBox="0 0 309 109" fill="none" xmlns="http://www.w3.org/2000/svg">
<g clip-path="url(#clip0_256_18)">
<path d="M112.002 37.8008H109.202C108.902 37.8008 108.702 37.7008 108.502 37.5008L104.802 32.9008H103.502V37.3008C103.502 37.6008 103.302 37.8008 103.002 37.8008H100.602C100.302 37.8008 100.102 37.6008 100.102 37.3008V23.3008C100.102 23.0008 100.302 22.8008 100.602 22.8008H103.502H105.902C108.802 22.8008 111.002 25.1008 111.002 27.9008C111.002 29.7008 109.902 31.3008 108.302 32.2008L112.202 37.1008C112.602 37.5008 112.502 37.8008 112.002 37.8008ZM103.602 29.9008H106.002C106.902 29.9008 107.702 29.1008 107.702 28.0008C107.702 26.9008 106.902 26.1008 106.002 26.1008H103.602C103.602 26.0008 103.602 29.9008 103.602 29.9008Z" fill="#292667"/>
<path d="M123.002 35.1008V37.3008C123.002 37.6008 122.802 37.8008 122.502 37.8008H115.102H114.602C114.302 37.8008 114.102 37.6008 114.102 37.3008V23.3008C114.102 23.0008 114.302 22.8008 114.602 22.8008H117.502H122.402C122.702 22.8008 122.902 23.0008 122.902 23.3008V25.5008C122.902 25.8008 122.702 26.0008 122.402 26.0008H117.502V28.5008H121.902C122.202 28.5008 122.402 28.7008 122.402 29.0008V31.1008C122.402 31.4008 122.202 31.6008 121.902 31.6008H117.502V34.3008H122.502C122.802 34.5008 123.002 34.7008 123.002 35.1008Z" fill="#292667"/>
<path d="M124.301 33.7C124.301 33.3 124.501 33.1 124.801 33.1H127.201C127.501 33.1 127.701 33.3 127.801 33.6C128.001 34.4 128.601 34.8 129.901 34.8C131.301 34.8 131.801 34.3 131.801 33.6C131.801 32.7 130.701 32.3 129.401 31.9C127.301 31.2 124.601 30.3 124.601 27C124.601 24 127.001 22.5 129.601 22.5C132.101 22.5 134.501 23.9 134.801 27C134.801 27.4 134.601 27.6 134.301 27.6H131.901C131.601 27.6 131.401 27.4 131.301 27.1C131.101 26.3 130.601 25.9 129.601 25.9C128.501 25.9 128.001 26.4 128.001 27.1C128.001 28 128.901 28.4 130.101 28.9C132.201 29.7 135.201 30.4 135.201 33.7C135.201 36.7 132.801 38.2 129.901 38.2C127.001 38.2 124.501 36.8 124.301 33.7Z" fill="#292667"/>
<path d="M146.002 35.1008V37.3008C146.002 37.6008 145.802 37.8008 145.502 37.8008H138.102H137.602C137.302 37.8008 137.102 37.6008 137.102 37.3008V23.3008C137.102 23.0008 137.302 22.8008 137.602 22.8008H140.502H145.402C145.702 22.8008 145.902 23.0008 145.902 23.3008V25.5008C145.902 25.8008 145.702 26.0008 145.402 26.0008H140.502V28.5008H144.902C145.202 28.5008 145.402 28.7008 145.402 29.0008V31.1008C145.402 31.4008 145.202 31.6008 144.902 31.6008H140.502V34.3008H145.502C145.802 34.5008 146.002 34.7008 146.002 35.1008Z" fill="#292667"/>
<path d="M160.402 37.7992H157.802C157.502 37.7992 157.302 37.6992 157.202 37.2992L156.602 35.3992H151.302L150.702 37.2992C150.602 37.5992 150.402 37.7992 150.102 37.7992H147.502C147.102 37.7992 146.902 37.5992 147.102 37.1992L151.702 23.1992C151.802 22.8992 152.002 22.6992 152.302 22.6992H155.702C156.002 22.6992 156.202 22.7992 156.302 23.1992L160.902 37.1992C161.002 37.5992 160.802 37.7992 160.402 37.7992ZM155.702 32.2992L154.002 26.5992L152.302 32.2992H155.702Z" fill="#292667"/>
<path d="M174.4 37.8008H171.6C171.3 37.8008 171.1 37.7008 170.9 37.5008L167.2 32.9008H165.9V37.3008C165.9 37.6008 165.7 37.8008 165.4 37.8008H163C162.7 37.8008 162.5 37.6008 162.5 37.3008V23.3008C162.5 23.0008 162.7 22.8008 163 22.8008H165.9H168.3C171.2 22.8008 173.4 25.1008 173.4 27.9008C173.4 29.7008 172.3 31.3008 170.7 32.2008L174.6 37.1008C175 37.5008 174.8 37.8008 174.4 37.8008ZM166 29.9008H168.4C169.3 29.9008 170.1 29.1008 170.1 28.0008C170.1 26.9008 169.3 26.1008 168.4 26.1008H166V29.9008Z" fill="#292667"/>
<path d="M175 30.3C175 25.9 178.3 22.5 182.8 22.5C186.2 22.5 189.2 24.6 190 27.8C190.1 28.2 189.9 28.4 189.5 28.4H187C186.7 28.4 186.5 28.3 186.4 28C185.8 26.7 184.4 25.9 182.8 25.9C180.1 25.9 178.4 27.7 178.4 30.4C178.4 33.1 180.1 34.9 182.8 34.9C184.4 34.9 185.8 34.1 186.4 32.8C186.5 32.5 186.7 32.4 187 32.4H189.5C189.9 32.4 190.1 32.6 190 33C189.2 36.1 186.2 38.3 182.8 38.3C178.3 38.2 175 34.8 175 30.3Z" fill="#292667"/>
<path d="M203.002 23.4005V37.4005C203.002 37.7005 202.802 37.9005 202.502 37.9005H200.102C199.802 37.9005 199.602 37.7005 199.602 37.4005V31.9005H195.302V37.4005C195.302 37.7005 195.102 37.9005 194.802 37.9005H192.402C192.102 37.9005 191.902 37.7005 191.902 37.4005V23.4005C191.902 23.1005 192.102 22.9005 192.402 22.9005H194.802C195.102 22.9005 195.302 23.1005 195.302 23.4005V28.5005H199.602V23.4005C199.602 23.1005 199.802 22.9005 200.102 22.9005H202.502C202.902 22.8005 203.002 23.0005 203.002 23.4005Z" fill="#292667"/>
<path d="M100.703 48.6016H103.103C103.403 48.6016 103.603 48.8016 103.603 49.1016V63.1016C103.603 63.4016 103.403 63.6016 103.103 63.6016H100.703C100.403 63.6016 100.203 63.4016 100.203 63.1016V49.1016C100.203 48.8016 100.403 48.6016 100.703 48.6016Z" fill="#292667"/>
<path d="M114.9 48.6016H117.3C117.6 48.6016 117.8 48.8016 117.8 49.1016V63.1016C117.8 63.4016 117.6 63.6016 117.3 63.6016H115.7C115.4 63.6016 115.2 63.5016 115 63.3016L109.9 55.3016V63.1016C109.9 63.4016 109.7 63.6016 109.4 63.6016H107C106.7 63.6016 106.5 63.4016 106.5 63.1016V49.1016C106.5 48.8016 106.7 48.6016 107 48.6016H108.6C108.9 48.6016 109.1 48.7016 109.3 48.9016L114.4 56.9016V49.1016C114.4 48.8016 114.6 48.6016 114.9 48.6016Z" fill="#292667"/>
<path d="M129.102 48.6016H131.502C131.802 48.6016 132.002 48.8016 132.002 49.1016V63.1016C132.002 63.4016 131.802 63.6016 131.502 63.6016H129.802C129.502 63.6016 129.302 63.5016 129.102 63.3016L124.002 55.3016V63.1016C124.002 63.4016 123.802 63.6016 123.502 63.6016H121.102C120.802 63.6016 120.602 63.4016 120.602 63.1016V49.1016C120.602 48.8016 120.802 48.6016 121.102 48.6016H122.702C123.002 48.6016 123.202 48.7016 123.402 48.9016L128.502 56.9016V49.1016C128.502 48.8016 128.702 48.6016 129.102 48.6016Z" fill="#292667"/>
<path d="M134.102 56.1008C134.102 51.7008 137.602 48.3008 141.902 48.3008C146.202 48.3008 149.702 51.7008 149.702 56.1008C149.702 60.5008 146.202 63.9008 141.902 63.9008C137.602 63.9008 134.102 60.5008 134.102 56.1008ZM146.302 56.1008C146.302 53.4008 144.402 51.6008 141.902 51.6008C139.502 51.6008 137.502 53.4008 137.502 56.1008C137.502 58.8008 139.402 60.6008 141.902 60.6008C144.402 60.5008 146.302 58.8008 146.302 56.1008Z" fill="#292667"/>
<path d="M154.5 63.2016L150.1 49.2016C150 48.8016 150.2 48.6016 150.5 48.6016H153.1C153.4 48.6016 153.6 48.7016 153.7 49.1016L156.7 59.7016L159.7 49.1016C159.8 48.8016 160 48.6016 160.3 48.6016H162.9C163.3 48.6016 163.5 48.8016 163.3 49.2016L158.9 63.2016C158.8 63.5016 158.6 63.7016 158.3 63.7016H154.9C154.8 63.6016 154.6 63.5016 154.5 63.2016Z" fill="#292667"/>
<path d="M176.601 63.6H174.001C173.701 63.6 173.501 63.5 173.401 63.1L172.801 61.2H167.501L166.901 63.1C166.801 63.4 166.601 63.6 166.301 63.6H163.701C163.301 63.6 163.101 63.4 163.301 63L167.901 49C168.001 48.7 168.201 48.5 168.501 48.5H171.901C172.201 48.5 172.401 48.7 172.501 49L177.101 63C177.101 63.4 176.901 63.6 176.601 63.6ZM171.801 58L170.101 52.3L168.401 58H171.801Z" fill="#292667"/>
<path d="M186.903 49.1018V51.3018C186.903 51.6018 186.703 51.8018 186.403 51.8018H183.503V63.0018C183.503 63.3018 183.303 63.5018 183.003 63.5018H180.603C180.303 63.5018 180.103 63.3018 180.103 63.0018V51.9018H177.203C176.903 51.9018 176.703 51.7018 176.703 51.4018V49.2018C176.703 48.9018 176.903 48.7018 177.203 48.7018H183.503H186.403C186.703 48.6018 186.903 48.8018 186.903 49.1018Z" fill="#292667"/>
<path d="M189.102 48.6016H191.502C191.802 48.6016 192.002 48.8016 192.002 49.1016V63.1016C192.002 63.4016 191.802 63.6016 191.502 63.6016H189.102C188.802 63.6016 188.602 63.4016 188.602 63.1016V49.1016C188.602 48.8016 188.802 48.6016 189.102 48.6016Z" fill="#292667"/>
<path d="M194.203 56.1008C194.203 51.7008 197.703 48.3008 202.003 48.3008C206.303 48.3008 209.803 51.7008 209.803 56.1008C209.803 60.5008 206.303 63.9008 202.003 63.9008C197.703 63.9008 194.203 60.5008 194.203 56.1008ZM206.403 56.1008C206.403 53.4008 204.503 51.6008 202.003 51.6008C199.503 51.6008 197.603 53.4008 197.603 56.1008C197.603 58.8008 199.503 60.6008 202.003 60.6008C204.503 60.6008 206.403 58.8008 206.403 56.1008Z" fill="#292667"/>
<path d="M220.4 48.6016H222.8C223.1 48.6016 223.3 48.8016 223.3 49.1016V63.1016C223.3 63.4016 223.1 63.6016 222.8 63.6016H221.2C220.9 63.6016 220.7 63.5016 220.5 63.3016L215.4 55.3016V63.1016C215.4 63.4016 215.2 63.6016 214.9 63.6016H212.5C212.2 63.6016 212 63.4016 212 63.1016V49.1016C212 48.8016 212.2 48.6016 212.5 48.6016H214.1C214.4 48.6016 214.6 48.7016 214.8 48.9016L219.9 56.9016V49.1016C219.9 48.8016 220.1 48.6016 220.4 48.6016Z" fill="#292667"/>
<path d="M108.701 74.2992H111.101C111.401 74.2992 111.601 74.4992 111.601 74.7992V88.6992C111.601 88.9992 111.401 89.1992 111.101 89.1992H109.501C109.201 89.1992 109.001 89.0992 108.801 88.8992L103.701 80.8992V88.6992C103.701 88.9992 103.501 89.1992 103.201 89.1992H100.801C100.501 89.1992 100.301 88.9992 100.301 88.6992V74.6992C100.301 74.3992 100.501 74.1992 100.801 74.1992H102.401C102.701 74.1992 102.901 74.2992 103.101 74.4992L108.201 82.4992V74.6992C108.201 74.4992 108.401 74.2992 108.701 74.2992Z" fill="#292667"/>
<path d="M123.4 86.6008V88.8008C123.4 89.1008 123.2 89.3008 122.9 89.3008H115.5H115C114.7 89.3008 114.5 89.1008 114.5 88.8008V74.8008C114.5 74.5008 114.7 74.3008 115 74.3008H117.9H122.8C123.1 74.3008 123.3 74.5008 123.3 74.8008V77.0008C123.3 77.3008 123.1 77.5008 122.8 77.5008H117.8V80.0008H122.2C122.5 80.0008 122.7 80.2008 122.7 80.5008V82.7008C122.7 83.0008 122.5 83.2008 122.2 83.2008H117.8V85.9008H122.8C123.2 86.0008 123.4 86.2008 123.4 86.6008Z" fill="#292667"/>
<path d="M134.802 74.9005V77.1005C134.802 77.4005 134.602 77.6005 134.302 77.6005H131.402V88.8005C131.402 89.1005 131.202 89.3005 130.902 89.3005H128.502C128.202 89.3005 128.002 89.1005 128.002 88.8005V77.6005H125.102C124.802 77.6005 124.602 77.4005 124.602 77.1005V74.9005C124.602 74.6005 124.802 74.4005 125.102 74.4005H131.402H134.302C134.602 74.3005 134.802 74.5005 134.802 74.9005Z" fill="#292667"/>
<path d="M154.301 74.9008L150.501 88.9008C150.401 89.2008 150.201 89.3008 149.901 89.3008H147.101C146.801 89.3008 146.601 89.2008 146.501 88.9008L144.801 82.7008L143.101 88.9008C143.001 89.2008 142.801 89.3008 142.501 89.3008H139.801C139.501 89.3008 139.301 89.2008 139.201 88.9008L135.401 74.9008C135.301 74.5008 135.501 74.3008 135.801 74.3008H138.301C138.601 74.3008 138.801 74.5008 138.901 74.8008L141.401 84.8008L143.401 77.4008L142.701 74.9008C142.601 74.5008 142.801 74.3008 143.101 74.3008H145.201C145.501 74.3008 145.701 74.5008 145.801 74.8008L148.301 84.8008L150.801 74.8008C150.901 74.5008 151.101 74.3008 151.401 74.3008H153.901C154.301 74.3008 154.401 74.5008 154.301 74.9008Z" fill="#292667"/>
<path d="M154.703 81.8C154.703 77.4 158.203 74 162.503 74C166.803 74 170.303 77.4 170.303 81.8C170.303 86.2 166.803 89.6 162.503 89.6C158.203 89.6 154.703 86.3 154.703 81.8ZM166.903 81.8C166.903 79.1 165.003 77.3 162.503 77.3C160.003 77.3 158.103 79.1 158.103 81.8C158.103 84.5 160.003 86.3 162.503 86.3C165.003 86.3 166.903 84.5 166.903 81.8Z" fill="#292667"/>
<path d="M184.302 89.3008H181.502C181.202 89.3008 181.002 89.2008 180.802 89.0008L177.102 84.4008H175.802V88.8008C175.802 89.1008 175.602 89.3008 175.302 89.3008H172.902C172.602 89.3008 172.402 89.1008 172.402 88.8008V74.8008C172.402 74.5008 172.602 74.3008 172.902 74.3008H175.802H178.202C181.102 74.3008 183.302 76.6008 183.302 79.5008C183.302 81.3008 182.202 82.9008 180.602 83.8008L184.502 88.7008C184.902 89.0008 184.802 89.3008 184.302 89.3008ZM175.902 81.4008H178.302C179.202 81.4008 180.002 80.6008 180.002 79.5008C180.002 78.4008 179.202 77.6008 178.302 77.6008H175.902V81.4008Z" fill="#292667"/>
<path d="M197.601 89.2984H194.901C194.601 89.2984 194.401 89.1984 194.301 88.9984L189.701 82.3984V88.7984C189.701 89.0984 189.501 89.2984 189.201 89.2984H186.801C186.501 89.2984 186.301 89.0984 186.301 88.7984V74.8984C186.301 74.5984 186.501 74.3984 186.801 74.3984H189.201C189.501 74.3984 189.701 74.5984 189.701 74.8984V80.8984L194.101 74.6984C194.301 74.4984 194.501 74.3984 194.701 74.3984H197.401C197.801 74.3984 198.001 74.6984 197.701 74.9984L193.101 81.6984L197.901 88.7984C198.201 89.0984 198.001 89.2984 197.601 89.2984Z" fill="#292667"/>
<path d="M216.8 89.2984H214.1C213.8 89.2984 213.6 89.1984 213.5 88.9984L208.9 82.3984V88.7984C208.9 89.0984 208.7 89.2984 208.4 89.2984H206C205.7 89.2984 205.5 89.0984 205.5 88.7984V74.8984C205.5 74.5984 205.7 74.3984 206 74.3984H208.4C208.7 74.3984 208.9 74.5984 208.9 74.8984V80.8984L213.3 74.6984C213.5 74.4984 213.7 74.3984 213.9 74.3984H216.6C217 74.3984 217.2 74.6984 216.9 74.9984L212.3 81.6984L217.1 88.7984C217.4 89.0984 217.2 89.2984 216.8 89.2984Z" fill="#292667"/>
<path d="M228.103 86.6008V88.8008C228.103 89.1008 227.903 89.3008 227.603 89.3008H220.203H219.703C219.403 89.3008 219.203 89.1008 219.203 88.8008V74.8008C219.203 74.5008 219.403 74.3008 219.703 74.3008H222.603H227.503C227.803 74.3008 228.003 74.5008 228.003 74.8008V77.0008C228.003 77.3008 227.803 77.5008 227.503 77.5008H222.603V80.0008H227.003C227.303 80.0008 227.503 80.2008 227.503 80.5008V82.7008C227.503 83.0008 227.303 83.2008 227.003 83.2008H222.603V85.9008H227.603C227.903 86.0008 228.103 86.2008 228.103 86.6008Z" fill="#292667"/>
<path d="M242.101 89.3008H239.301C239.001 89.3008 238.801 89.2008 238.601 89.0008L234.901 84.4008H233.601V88.8008C233.601 89.1008 233.401 89.3008 233.101 89.3008H230.801C230.501 89.3008 230.301 89.1008 230.301 88.8008V74.8008C230.301 74.5008 230.501 74.3008 230.801 74.3008H233.701H236.101C239.001 74.3008 241.201 76.6008 241.201 79.5008C241.201 81.3008 240.101 82.9008 238.501 83.8008L242.401 88.7008C242.701 89.0008 242.501 89.3008 242.101 89.3008ZM233.701 81.4008H236.101C237.001 81.4008 237.801 80.6008 237.801 79.5008C237.801 78.4008 237.001 77.6008 236.101 77.6008H233.701V81.4008Z" fill="#292667"/>
<path d="M256.203 89.3008H253.603C253.303 89.3008 253.103 89.2008 253.003 88.9008L252.403 87.0008H247.103L246.503 88.9008C246.403 89.2008 246.203 89.3008 245.903 89.3008H243.303C242.903 89.3008 242.703 89.1008 242.803 88.7008L247.303 74.7008C247.403 74.4008 247.603 74.3008 247.903 74.3008H251.303C251.603 74.3008 251.803 74.5008 251.903 74.7008L256.403 88.7008C256.803 89.1008 256.603 89.3008 256.203 89.3008ZM251.503 83.8008L249.803 78.1008L248.103 83.8008H251.503Z" fill="#292667"/>
<path d="M266.902 86.6008V88.8008C266.902 89.1008 266.702 89.3008 266.402 89.3008H260.102H258.902C258.602 89.3008 258.402 89.1008 258.402 88.8008V74.8008C258.402 74.5008 258.602 74.3008 258.902 74.3008H261.302C261.602 74.3008 261.802 74.5008 261.802 74.8008V86.0008H266.402C266.802 86.0008 266.902 86.2008 266.902 86.6008Z" fill="#292667"/>
<path d="M280.902 89.3008H278.302C278.002 89.3008 277.802 89.2008 277.702 88.9008L277.102 87.0008H271.802L271.202 88.9008C271.102 89.2008 270.902 89.3008 270.602 89.3008H268.002C267.602 89.3008 267.402 89.1008 267.502 88.7008L272.002 74.7008C272.102 74.4008 272.302 74.3008 272.602 74.3008H276.002C276.302 74.3008 276.502 74.5008 276.602 74.7008L281.102 88.7008C281.502 89.1008 281.302 89.3008 280.902 89.3008ZM276.102 83.8008L274.402 78.1008L272.702 83.8008H276.102Z" fill="#292667"/>
<path d="M44.2023 83.4008H52.0023C52.4023 83.4008 52.8023 83.0008 52.8023 82.6008C52.8023 82.2008 52.4023 81.8008 52.0023 81.8008H44.2023C43.8023 81.8008 43.4023 82.2008 43.4023 82.6008C43.4023 83.0008 43.7023 83.4008 44.2023 83.4008Z" fill="#1B8DCD"/>
<path d="M52.0023 84.9023H44.2023C43.8023 84.9023 43.4023 85.3023 43.4023 85.7023C43.4023 86.1023 43.8023 86.5023 44.2023 86.5023H52.0023C52.4023 86.5023 52.8023 86.1023 52.8023 85.7023C52.8023 85.3023 52.4023 84.9023 52.0023 84.9023Z" fill="#1B8DCD"/>
<path d="M48.8023 88.1016H44.2023C43.8023 88.1016 43.4023 88.5016 43.4023 88.9016C43.4023 89.3016 43.8023 89.7016 44.2023 89.7016H48.8023C49.2023 89.7016 49.6023 89.3016 49.6023 88.9016C49.6023 88.4016 49.3023 88.1016 48.8023 88.1016Z" fill="#1B8DCD"/>
<path d="M52.0031 89.7016C52.445 89.7016 52.8031 89.3434 52.8031 88.9016C52.8031 88.4597 52.445 88.1016 52.0031 88.1016C51.5613 88.1016 51.2031 88.4597 51.2031 88.9016C51.2031 89.3434 51.5613 89.7016 52.0031 89.7016Z" fill="#1B8DCD"/>
<path d="M69.5004 34.7024C76.5004 40.2024 81.1004 48.1024 82.4004 57.0024C82.5004 57.7024 82.0004 58.3024 81.3004 58.5024C80.6004 58.6024 80.0004 58.1024 79.9004 57.4024C78.7004 49.2024 74.4004 41.9024 67.9004 36.7024C53.8004 25.6024 33.3004 28.0024 22.1004 42.1024C18.9004 46.1024 16.8004 50.7024 15.8004 55.6024C15.7004 56.3024 15.0004 56.7024 14.3004 56.6024C13.6004 56.5024 13.2004 55.8024 13.3004 55.1024C14.4004 49.7024 16.7004 44.8024 20.1004 40.5024C32.1004 25.3024 54.3004 22.7024 69.5004 34.7024Z" fill="#1B8DCD"/>
<path d="M11.401 47.0006C11.101 47.7006 11.401 48.4006 12.101 48.7006C12.801 49.0006 13.501 48.7006 13.801 48.0006C15.101 44.9006 16.801 42.0006 18.901 39.4006C28.201 27.5006 43.701 22.7006 58.201 27.0006C58.901 27.2006 59.601 26.8006 59.801 26.1006C60.001 25.6006 59.801 25.1006 59.401 24.7006C59.301 24.6006 59.101 24.5006 59.001 24.5006C43.401 19.9006 26.901 25.1006 16.801 37.9006C14.601 40.7006 12.801 43.7006 11.401 47.0006Z" fill="#1B8DCD"/>
<path d="M72.1021 31.3997C77.9021 35.9997 82.3021 42.0997 84.8021 48.9997C85.0021 49.6997 84.7021 50.3997 84.0021 50.5997C83.3021 50.7997 82.6021 50.4997 82.4021 49.7997C80.1021 43.2997 76.0021 37.5997 70.6021 33.2997C68.4021 31.5997 66.1021 30.0997 63.7021 28.9997C63.1021 28.6997 62.8021 27.8997 63.1021 27.2997C63.4021 26.6997 64.2021 26.3997 64.8021 26.6997C67.3021 27.9997 69.8021 29.5997 72.1021 31.3997Z" fill="#1B8DCD"/>
<path d="M66.8994 38.1019C74.6994 44.3019 79.0994 54.0019 78.5994 64.0019C78.5994 64.7019 77.9994 65.2019 77.2994 65.2019C76.5994 65.2019 76.0994 64.6019 76.0994 63.9019C76.5994 54.7019 72.5994 45.8019 65.3994 40.1019C59.6994 35.6019 52.5994 33.4019 45.2994 34.1019C44.5994 34.2019 43.9994 33.6019 43.8994 32.9019C43.7994 32.2019 44.2994 31.6019 45.0994 31.5019C52.8994 30.8019 60.5994 33.1019 66.8994 38.1019Z" fill="#1B8DCD"/>
<path d="M40.7999 32.7025C40.9999 32.9025 41.1999 33.1025 41.1999 33.4025C41.3999 34.1025 40.9999 34.8025 40.2999 35.0025C34.3999 36.6025 29.1999 40.0025 25.3999 44.8025C24.9999 45.3025 24.1999 45.4025 23.5999 45.0025C22.9999 44.6025 22.9999 43.8025 23.3999 43.2025C27.5999 38.0025 33.1999 34.2025 39.5999 32.5025C40.0999 32.3025 40.4999 32.4025 40.7999 32.7025Z" fill="#1B8DCD"/>
<path d="M22.4008 47.1988C22.9008 47.5988 23.0008 48.1988 22.7008 48.7988C20.5008 52.8988 19.3008 57.5988 19.3008 62.2988C19.3008 62.9988 18.7008 63.5988 18.0008 63.5988C17.3008 63.5988 16.8008 62.9988 16.8008 62.2988C16.8008 57.1988 18.1008 52.0988 20.5008 47.5988C20.8008 46.9988 21.6008 46.7988 22.2008 47.0988C22.3008 47.0988 22.4008 47.0988 22.4008 47.1988Z" fill="#1B8DCD"/>
<path d="M64.2024 41.4011C72.9024 48.3011 76.4024 59.5011 73.2024 70.1011C73.0024 70.8011 72.3024 71.2011 71.6024 70.9011C70.9024 70.7011 70.5024 70.0011 70.8024 69.3011C73.7024 59.7011 70.5024 49.5011 62.7024 43.3011C52.3024 35.0011 37.1024 36.8011 28.8024 47.3011C24.1024 53.2011 22.5024 60.8011 24.3024 68.1011C24.5024 68.8011 24.1024 69.5011 23.4024 69.6011C22.7024 69.7011 22.0024 69.4011 21.9024 68.7011C19.9024 60.6011 21.7024 52.3011 26.9024 45.8011C35.9024 34.2011 52.7024 32.2011 64.2024 41.4011Z" fill="#1B8DCD"/>
<path d="M65.1015 48.1991C65.2015 48.2991 65.3015 48.2991 65.3015 48.3991C71.4015 56.1991 71.7015 67.1991 66.0015 75.1991C65.6015 75.7991 64.8015 75.8991 64.2015 75.4991C63.6015 75.0991 63.5015 74.2991 63.9015 73.6991C69.0015 66.5991 68.7015 56.7991 63.3015 49.8991C62.9015 49.3991 63.0015 48.5991 63.5015 48.0991C64.0015 47.7991 64.7015 47.8991 65.1015 48.1991Z" fill="#1B8DCD"/>
<path d="M61.6021 44.6987C62.2021 45.0987 62.2021 45.8987 61.8021 46.4987C61.4021 47.0987 60.6021 47.0987 60.0021 46.6987C51.4021 39.8987 38.9021 41.3987 32.0021 49.9987C26.8021 56.5987 26.3021 65.7987 30.8021 72.8987C31.2021 73.4987 31.0021 74.2986 30.4021 74.6986C29.8021 75.0986 29.0021 74.8987 28.6021 74.2987C23.6021 66.2987 24.1021 55.8987 30.0021 48.3987C37.8021 38.6987 51.9021 36.9987 61.6021 44.6987Z" fill="#1B8DCD"/>
<path d="M42.7002 78.1023C42.7002 77.9023 42.7002 77.8022 42.7002 77.7022C42.7002 77.7022 42.7002 77.7023 42.7002 77.6023C42.7002 77.5023 42.6002 77.4023 42.5002 77.3023C42.5002 77.3023 42.3002 77.1023 42.3002 77.0023C42.3002 77.0023 42.3002 77.0023 42.2002 77.0023C42.1002 76.9023 42.0002 76.9023 41.9002 76.8023C40.5002 76.2023 39.2002 75.5023 38.0002 74.6023C33.3002 70.8023 31.1002 64.6023 32.5002 58.8023C32.6002 58.3023 32.4002 57.8023 32.0002 57.5023C31.9002 57.4023 31.7002 57.3023 31.5002 57.3023C30.8002 57.1023 30.1002 57.6023 30.0002 58.3023C28.4002 65.1023 30.9002 72.4022 36.4002 76.7022C37.8002 77.8022 39.3002 78.7023 40.9002 79.3023C41.5002 79.5023 42.1002 79.3023 42.4002 78.8023C42.5002 78.7023 42.5002 78.6023 42.5002 78.6023C42.6002 78.4023 42.6002 78.2023 42.7002 78.1023Z" fill="#1B8DCD"/>
<path d="M31.7003 53.5991C31.4003 54.1991 31.6003 54.9991 32.2003 55.2991C32.8003 55.5991 33.6003 55.3991 33.9003 54.7991C34.3003 53.9991 34.8003 53.2991 35.4003 52.5991C40.8003 45.7991 50.6003 44.6991 57.4003 49.9991C64.2003 55.2991 65.3003 65.1991 60.0003 71.9991C58.1003 74.3991 55.6003 76.0991 52.7003 77.0991C52.0003 77.2991 51.7003 77.9991 51.9003 78.6991C52.1003 79.3991 52.8003 79.6991 53.5003 79.4991C56.8003 78.3991 59.8003 76.2991 61.9003 73.5991C68.1003 65.6991 66.8003 54.2991 58.9003 47.9991C51.0003 41.6991 39.6003 43.0991 33.3003 50.9991C32.8003 51.7991 32.2003 52.6991 31.7003 53.5991Z" fill="#1B8DCD"/>
</g>
<defs>
<clipPath id="clip0_256_18">
<rect width="308" height="109" fill="white" transform="translate(0.800781)"/>
</clipPath>
</defs>
</svg>
